<svg width="16" height="18" viewBox="0 0 16 18" fill="none" xmlns="http://www.w3.org/2000/svg">
<path d="M10.3252 -0.0996094C11.6715 -0.099582 12.9048 0.131079 13.8057 0.53418C14.7 0.934439 15.3008 1.52193 15.3008 2.25C15.3008 2.97807 14.7 3.56556 13.8057 3.96582C12.9048 4.36892 11.6715 4.59958 10.3252 4.59961C8.97909 4.59961 7.74553 4.36898 6.84473 3.96582C5.95049 3.56556 5.35059 2.97807 5.35059 2.25C5.35059 1.52193 5.95049 0.934439 6.84473 0.53418C7.74553 0.131021 8.97909 -0.0996094 10.3252 -0.0996094ZM10.3252 0.850586C9.18623 0.850586 8.1672 1.03887 7.43652 1.31641C7.07075 1.45534 6.78145 1.61488 6.58594 1.78027C6.3887 1.9472 6.30078 2.10808 6.30078 2.25C6.30078 2.39192 6.3887 2.5528 6.58594 2.71973C6.78145 2.88512 7.07075 3.04466 7.43652 3.18359C8.1672 3.46113 9.18623 3.64941 10.3252 3.64941C11.4641 3.64939 12.4831 3.46113 13.2139 3.18359C13.5797 3.04466 13.8689 2.88512 14.0645 2.71973C14.2618 2.55277 14.3506 2.39193 14.3506 2.25C14.3506 2.10807 14.2618 1.94723 14.0645 1.78027C13.8689 1.61488 13.5797 1.45534 13.2139 1.31641C12.4831 1.03887 11.4641 0.850612 10.3252 0.850586Z" fill="#FF3366" stroke="#FF3366" stroke-width="0.2"/>
<path d="M6.30078 2.15039V4.5C6.30078 4.64192 6.3887 4.8028 6.58594 4.96973C6.78145 5.13512 7.07075 5.29466 7.43652 5.43359C8.1672 5.71113 9.18623 5.89941 10.3252 5.89941C11.4641 5.89939 12.4831 5.71112 13.2139 5.43359C13.5797 5.29466 13.8689 5.13512 14.0645 4.96973C14.2618 4.80277 14.3506 4.64193 14.3506 4.5V2.15039H15.3008V4.5C15.3008 5.22807 14.7 5.81556 13.8057 6.21582C12.9048 6.61892 11.6715 6.84958 10.3252 6.84961C8.97909 6.84961 7.74553 6.61898 6.84473 6.21582C5.95049 5.81556 5.35059 5.22807 5.35059 4.5V2.15039H6.30078Z" fill="#FF3366" stroke="#FF3366" stroke-width="0.2"/>
<path d="M15.3008 4.40033V6.74994C15.3008 7.47801 14.7 8.0655 13.8057 8.46576C12.9048 8.86886 11.6715 9.09952 10.3252 9.09955C9.94093 9.09955 9.56551 9.08103 9.20508 9.04486L9.20117 8.94525L9.11523 8.9472C9.10613 8.56978 9.09962 8.31446 9.09961 8.24994C9.09961 8.23408 9.09892 8.21696 9.09668 8.20013L9.08008 8.07318L9.20703 8.08783C9.56178 8.12817 9.93653 8.14935 10.3252 8.14935C11.4641 8.14933 12.4831 7.96106 13.2139 7.68353C13.5797 7.5446 13.8689 7.38506 14.0645 7.21967C14.2618 7.05271 14.3506 6.89187 14.3506 6.74994V4.40033H15.3008ZM6.30078 4.40033V6.74994C6.30078 6.76643 6.30146 6.78284 6.30371 6.79974L6.32031 6.9267L6.19336 6.91205C5.95335 6.88492 5.70315 6.86641 5.44629 6.85736L5.43848 6.85638L5.42969 6.85443L5.35059 6.83881V4.40033H6.30078Z" fill="#FF3366" stroke="#FF3366" stroke-width="0.2"/>
<path d="M15.3008 6.65045V9.00006C15.3008 9.72813 14.7 10.3156 13.8057 10.7159C12.9048 11.119 11.6715 11.3496 10.3252 11.3497C9.96139 11.3497 9.60551 11.3335 9.2627 11.3008L9.00977 11.2764L9.1709 11.1514C9.16442 10.9101 9.15824 10.6738 9.15234 10.4464L9.14941 10.3321L9.26367 10.3438C9.60099 10.38 9.95757 10.3995 10.3252 10.3995C11.4641 10.3994 12.4831 10.2112 13.2139 9.93365C13.5797 9.79473 13.8689 9.63517 14.0645 9.46979C14.2618 9.30285 14.3506 9.14198 14.3506 9.00006V6.65045H15.3008ZM6.30078 6.65045V6.92389L6.18945 6.91119C5.94992 6.88473 5.70172 6.86653 5.44629 6.85748L5.35059 6.85358V6.65045H6.30078Z" fill="#FF3366" stroke="#FF3366" stroke-width="0.2"/>
<path d="M5.0752 6.65039C6.4212 6.65039 7.65488 6.88108 8.55566 7.28418C9.44991 7.68444 10.0508 8.27193 10.0508 9C10.0508 9.72807 9.44991 10.3156 8.55566 10.7158C7.65488 11.1189 6.4212 11.3496 5.0752 11.3496C3.72888 11.3496 2.49552 11.119 1.59473 10.7158C0.700395 10.3156 0.100586 9.72807 0.100586 9C0.100586 8.27193 0.700395 7.68444 1.59473 7.28418C2.49552 6.88105 3.72888 6.65045 5.0752 6.65039ZM5.0752 7.60059C3.9364 7.60064 2.91728 7.7889 2.18652 8.06641C1.82095 8.20526 1.53244 8.365 1.33691 8.53027C1.13944 8.69728 1.05078 8.85803 1.05078 9C1.05078 9.14196 1.13943 9.30272 1.33691 9.46973C1.53244 9.635 1.82096 9.79474 2.18652 9.93359C2.91728 10.2111 3.9364 10.3994 5.0752 10.3994C6.21405 10.3994 7.23321 10.2111 7.96387 9.93359C8.32964 9.79466 8.61894 9.63512 8.81445 9.46973C9.01179 9.30276 9.10059 9.14195 9.10059 9C9.10059 8.85805 9.01179 8.69724 8.81445 8.53027C8.61894 8.36488 8.32964 8.20534 7.96387 8.06641C7.23321 7.78891 6.21405 7.60059 5.0752 7.60059Z" fill="#FF3366" stroke="#FF3366" stroke-width="0.2"/>
<path d="M1.05078 8.90039V11.25C1.05078 11.392 1.13943 11.5527 1.33691 11.7197C1.53244 11.885 1.82096 12.0447 2.18652 12.1836C2.91728 12.4611 3.9364 12.6494 5.0752 12.6494C6.21405 12.6494 7.23321 12.4611 7.96387 12.1836C8.32964 12.0447 8.61894 11.8851 8.81445 11.7197C9.01178 11.5528 9.10059 11.392 9.10059 11.25V8.90039H10.0508V11.25C10.0508 11.9781 9.44991 12.5656 8.55566 12.9658C7.65488 13.3689 6.4212 13.5996 5.0752 13.5996C3.72888 13.5996 2.49552 13.369 1.59473 12.9658C0.700395 12.5656 0.100586 11.9781 0.100586 11.25V8.90039H1.05078Z" fill="#FF3366" stroke="#FF3366" stroke-width="0.2"/>
<path d="M1.05078 11.1504V13.5C1.05078 13.642 1.13943 13.8027 1.33691 13.9697C1.53244 14.135 1.82096 14.2947 2.18652 14.4336C2.91728 14.7111 3.9364 14.8994 5.0752 14.8994C6.21405 14.8994 7.23321 14.7111 7.96387 14.4336C8.32964 14.2947 8.61894 14.1351 8.81445 13.9697C9.01178 13.8028 9.10059 13.642 9.10059 13.5V11.1504H10.0508V13.5C10.0508 14.2281 9.44991 14.8156 8.55566 15.2158C7.65488 15.6189 6.4212 15.8496 5.0752 15.8496C3.72888 15.8496 2.49552 15.619 1.59473 15.2158C0.700395 14.8156 0.100586 14.2281 0.100586 13.5V11.1504H1.05078Z" fill="#FF3366" stroke="#FF3366" stroke-width="0.2"/>
<path d="M1.05078 13.4004V15.75C1.05078 15.892 1.13943 16.0527 1.33691 16.2197C1.53244 16.385 1.82096 16.5447 2.18652 16.6836C2.91728 16.9611 3.9364 17.1494 5.0752 17.1494C6.21405 17.1494 7.23321 16.9611 7.96387 16.6836C8.32964 16.5447 8.61894 16.3851 8.81445 16.2197C9.01178 16.0528 9.10059 15.892 9.10059 15.75V13.4004H10.0508V15.75C10.0508 16.4781 9.44991 17.0656 8.55566 17.4658C7.65488 17.8689 6.4212 18.0996 5.0752 18.0996C3.72888 18.0996 2.49552 17.869 1.59473 17.4658C0.700395 17.0656 0.100586 16.4781 0.100586 15.75V13.4004H1.05078Z" fill="#FF3366" stroke="#FF3366" stroke-width="0.2"/>
<path d="M15.3008 8.90042V11.25C15.3008 11.9781 14.7 12.5656 13.8057 12.9659C12.9048 13.3689 11.6715 13.5996 10.3252 13.5996C9.9827 13.5996 9.64764 13.5848 9.32324 13.5557L9.2627 13.5508L9.23926 13.4942L9.23242 13.4776V13.459C9.2261 13.2153 9.21922 12.961 9.21289 12.7022L9.20996 12.5889L9.32227 12.6006C9.64241 12.6326 9.97837 12.6494 10.3252 12.6494C11.4641 12.6494 12.483 12.4612 13.2139 12.1836C13.5797 12.0447 13.8689 11.8852 14.0645 11.7198C14.2618 11.5528 14.3506 11.392 14.3506 11.25V8.90042H15.3008Z" fill="#FF3366" stroke="#FF3366" stroke-width="0.2"/>
<path d="M15.3008 11.1504V13.5C15.3008 14.228 14.7007 14.8156 13.8066 15.2158C12.9058 15.619 11.6717 15.8496 10.3252 15.8496C10.0047 15.8496 9.68989 15.8363 9.38574 15.8115L9.32129 15.8066L9.2998 15.7461L9.29395 15.7305V15.7148C9.29113 15.6183 9.28397 15.345 9.27344 14.958L9.26953 14.8457L9.38281 14.8555C9.68473 14.884 10.0001 14.8994 10.3252 14.8994C11.4641 14.8994 12.483 14.7111 13.2139 14.4336C13.5797 14.2947 13.8689 14.1351 14.0645 13.9697C14.2619 13.8027 14.3506 13.6419 14.3506 13.5V11.1504H15.3008Z" fill="#FF3366" stroke="#FF3366" stroke-width="0.2"/>
</svg>
